<!-- Fonte: SVG Repo — https://www.svgrepo.com/svg/86101/jet-ski (CC0 / conforme página). -->
<svg xmlns="http://www.w3.org/2000/svg" fill="currentColor" viewBox="0 0 487.038 487.038" xml:space="preserve">
<g transform="translate(0 -540.36)">
<g><g>
<path d="M483.457,914.279c-5.1-4.3-31.4-25.4-51.2-24.5c-11.3,0.1-20,7-27.6,13c-6,4.7-11.6,9.1-16.7,9.1c-4.4,0-9.7-4.2-15.4-8.7c-8-6.4-17.1-13.5-29.1-13.5c-11.3,0-20.1,6.9-27.8,13c-6,4.7-11.6,9.1-16.7,9.1c-4.4,0-9.7-4.2-15.4-8.7c-8-6.4-17.1-13.5-29.1-13.5c-11.6,0-20.4,7.1-28.1,13.3c-5.6,4.6-11,8.9-15.5,8.9c-5.1,0-10.8-4.4-16.7-9.1c-7.7-6.1-16.4-13-27.8-13c-12.1,0-21.1,7.2-29.1,13.5c-5.6,4.5-11,8.7-15.4,8.7c-4.9,0-10.4-4.4-16.2-9.1c-7.8-6.3-16.7-13.5-28.5-13c-19.5,0.2-45.5,20.4-50.5,24.4c-4.3,3.5-5,9.8-1.5,14.1s9.8,5,14.1,1.5c10.3-8.3,29-20,38.2-20c0.2,0,0.4,0,0.6,0c4.2-0.2,9.5,4.1,15.1,8.6c7.9,6.4,16.8,13.6,28.8,13.6c11.4,0,20.1-6.9,27.8-13c6-4.7,11.6-9.1,16.7-9.1c4.4,0,9.7,4.2,15.4,8.7c8,6.4,17.1,13.5,29.1,13.5c11.6,0,20.4-7.1,28.1-13.3c5.6-4.6,11-8.9,15.5-8.9c5.1,0,10.8,4.4,16.7,9.1c7.7,6.1,16.4,13,27.8,13c12.1,0,21.1-7.2,29.1-13.5c5.6-4.5,11-8.7,15.4-8.7c5.1,0,10.8,4.4,16.7,9.1c7.7,6.1,16.4,13,27.8,13c12.1,0,21.1-7.2,29.1-13.5c5.6-4.5,11-8.7,15.4-8.7c0.1,0,0.3,0,0.5,0c8.9-0.5,27.3,11.3,37.5,19.8c1.9,1.5,4.1,2.3,6.4,2.3v0c2.9,0,5.7-1.2,7.8-3.4C488.257,924.179,487.657,917.779,483.457,914.279z"/>
<path d="M26.957,867.679c-4.3,3.5-5,9.7-1.5,14.1c3.5,4.3,9.7,5,14.1,1.5c10.3-8.3,29-20,38.2-20c0.2,0,0.4,0,0.6,0c4.2-0.3,9.5,4,15.1,8.6c7.9,6.4,16.8,13.6,28.8,13.6c11.4,0,20.1-6.9,27.8-13c5.9-4.7,11.6-9.1,16.7-9.1c4.4,0,9.8,4.2,15.4,8.7c8,6.3,17,13.5,29.1,13.5c11.5,0,20.3-7.1,28.1-13.3c5.7-4.6,11-8.9,15.5-8.9c5.1,0,10.7,4.4,16.7,9.1c7.7,6.1,16.5,13,27.8,13c12,0,21.1-7.1,29.1-13.5c5.7-4.5,11-8.7,15.4-8.7c5.1,0,10.7,4.4,16.7,9.1c7.7,6.1,16.4,13,27.8,13c12,0,21.1-7.1,29.1-13.5c5.7-4.5,11-8.7,15.4-8.7c0.2,0,0.4,0,0.5,0c8.9-0.5,27.3,11.3,37.5,19.8c1.9,1.6,4.1,2.3,6.4,2.3c2.9,0,5.7-1.2,7.7-3.6c3.2-3.9,2.7-10.2-1.6-13.7v0c-3.6-3-18.1-14.7-33.3-20.8l34.9-45.8c2.8-3.6,2.7-8.7-0.1-12.3l-55.2-69.2c0,0,0,0,0-0.1c-0.2-0.2-0.3-0.4-0.5-0.6c-0.1-0.1-0.1-0.1-0.2-0.2c-0.2-0.2-0.4-0.4-0.6-0.5c-0.1-0.1-0.1-0.1-0.2-0.2c-0.2-0.1-0.4-0.3-0.5-0.4c-0.1-0.1-0.2-0.1-0.3-0.2c-0.1-0.1-0.3-0.2-0.5-0.3c-0.1-0.1-0.3-0.2-0.4-0.3l-155.7-80.3c-1.4-0.7-3-1.1-4.6-1.1h-66.7c-5.5,0-10,4.5-10,10s4.5,10,10,10h64.3l109.7,56.6l-95.8-7.3c-2.4-0.2-4.9,0.5-6.9,2l-41.8,32.1h-130c-2.2,0-4.4,0.7-6.1,2.1l-89,69.2c-2.2,1.7-3.6,4.2-3.8,7c-0.3,2.7,0.6,5.5,2.5,7.5l32.5,36.7C31.157,864.279,28.257,866.579,26.957,867.679z M102.357,759.179h130c2.2,0,4.3-0.7,6.1-2.1l41.4-31.8l136.8,10.5l40.1,50.3l-415.7,20.8L102.357,759.179z M31.157,827.379l424.9-21.2l-28.8,37.9c-8.9,1.5-16.1,7.3-22.6,12.4v0c-5.9,4.7-11.6,9.1-16.7,9.1c-4.4,0-9.8-4.2-15.4-8.7c-8-6.3-17-13.5-29.1-13.5c-11.4,0-20.1,6.9-27.8,13c-5.9,4.7-11.6,9.1-16.7,9.1c-4.4,0-9.8-4.2-15.4-8.7c-8-6.3-17-13.5-29.1-13.5c-11.5,0-20.3,7.1-28.1,13.3c-5.7,4.6-11,8.9-15.5,8.9c-5.1,0-10.7-4.4-16.7-9.1c-7.7-6.1-16.5-13-27.8-13c-12,0-21.1,7.1-29.1,13.5c-5.7,4.5-11,8.7-15.4,8.7c-4.9,0-10.4-4.4-16.2-9.1c-7.9-6.4-16.8-13.5-28.5-13c-7.9,0.1-16.8,3.4-25,7.7L31.157,827.379z"/>
</g></g>
</g>
</svg>
